
<svg version="1.0" xmlns="http://www.w3.org/2000/svg"
 width="60" height="60" viewBox="0 0 4675.000000 4675.000000"
 preserveAspectRatio="xMidYMid meet">
<metadata>
Created by potrace 1.16, written by Peter Selinger 2001-2019
</metadata>
<g transform="translate(0.000000,4675.000000) scale(0.100000,-0.100000)"
fill="#000000" stroke="none">
<path d="M21100 40144 c-30 -2 -127 -8 -215 -14 -131 -9 -326 -40 -1070 -171
-500 -88 -916 -162 -923 -164 -41 -14 677 -1075 728 -1075 27 0 584 -140 593
-150 5 -4 -45 -80 -112 -168 l-120 -160 121 -144 c159 -187 307 -355 494 -558
l151 -165 179 -34 c185 -35 502 -110 658 -156 49 -14 96 -23 104 -20 8 3 20
-1 26 -9 6 -7 76 -35 156 -61 80 -26 178 -60 218 -76 l73 -28 57 20 c73 26
441 139 450 139 4 0 15 -28 25 -63 25 -85 104 -244 174 -352 l59 -90 155 -89
c995 -571 1817 -1420 2422 -2503 53 -93 61 -117 102 -293 25 -106 45 -194 45
-196 0 -14 30 0 51 24 90 97 152 325 196 715 25 217 24 866 0 1127 -125 1315
-522 2400 -1185 3232 -121 153 -432 468 -572 580 -642 514 -1364 797 -2260
883 -155 15 -658 27 -780 19z"/>
<path d="M33311 39360 c-591 -34 -1303 -182 -1976 -410 -1059 -360 -2010 -918
-2905 -1704 -154 -135 -558 -539 -701 -701 -489 -552 -869 -1103 -1139 -1650
-227 -461 -324 -831 -254 -966 26 -52 75 -52 228 1 256 88 449 192 681 365
l110 82 120 226 c66 125 124 227 128 227 4 0 48 -33 97 -74 l89 -73 173 114
c463 305 994 619 1458 861 l155 81 168 250 c92 138 171 252 175 255 4 2 120
-19 257 -47 l250 -50 306 136 c1160 515 1904 769 2924 997 126 28 231 53 234
55 4 4 -189 191 -247 240 -25 21 -30 30 -20 35 15 9 277 36 483 50 268 19 557
10 647 -20 22 -7 64 5 230 64 472 171 916 359 1398 592 232 113 582 295 577
301 -10 9 -1949 588 -2071 617 -255 63 -564 112 -841 135 -179 15 -559 21
-734 11z"/>
<path d="M18437 39158 c-14 -12 0 -52 148 -408 l163 -395 339 -41 c187 -22
344 -43 349 -47 5 -3 61 -150 124 -327 63 -177 121 -325 128 -327 41 -17 31
23 -87 353 -67 186 -126 341 -131 344 -6 3 -160 23 -342 45 -183 21 -338 43
-344 49 -6 6 -80 178 -163 381 -84 204 -156 373 -160 378 -4 4 -15 1 -24 -5z"/>
<path d="M39125 37483 c-1348 -44 -2506 -157 -3730 -363 -1598 -269 -3136
-686 -4582 -1241 -1775 -682 -3436 -1591 -4909 -2687 l-221 -164 -13 -105 c-7
-57 -16 -100 -20 -96 -4 4 -37 143 -75 308 -76 337 -72 328 -248 620 -994
1655 -2475 2687 -4412 3074 -553 110 -1036 158 -1680 168 -540 8 -963 -13
-1505 -73 -1292 -143 -2687 -485 -4060 -996 -330 -123 -854 -338 -982 -404
l-37 -19 76 -105 c97 -134 214 -276 342 -415 119 -129 380 -375 399 -375 7 0
184 43 393 95 210 53 383 94 385 92 2 -2 -63 -34 -144 -71 -204 -95 -652 -324
-862 -441 -801 -448 -1558 -976 -2255 -1577 -506 -436 -1039 -973 -1476 -1488
-1392 -1641 -2372 -3593 -2853 -5679 -74 -322 -130 -611 -120 -620 8 -7 904
-172 929 -171 6 0 25 80 44 178 169 886 479 1854 872 2727 98 217 346 709 466
925 575 1030 1260 1936 2093 2770 836 836 1759 1533 2790 2105 232 129 762
396 787 397 10 0 103 -47 208 -106 734 -411 1670 -791 2750 -1116 143 -43 305
-90 360 -105 l100 -26 469 100 c258 55 472 98 475 96 4 -2 60 -114 125 -248
l118 -245 52 -10 c28 -6 157 -34 286 -61 315 -67 706 -140 1100 -207 179 -30
329 -56 335 -58 5 -1 -98 -39 -230 -83 -969 -327 -2008 -839 -3045 -1501
-1056 -674 -2251 -1607 -3050 -2379 l-133 -129 98 -38 c144 -55 263 -92 415
-131 153 -38 390 -85 433 -85 21 0 150 81 480 303 534 358 487 329 463 292
-11 -17 -109 -169 -219 -340 l-198 -310 88 -6 c141 -11 641 -10 853 1 794 42
1682 170 2665 386 138 30 266 59 285 64 32 9 74 60 400 485 200 261 366 475
369 475 3 -1 86 -152 185 -336 174 -327 179 -335 205 -329 14 4 172 49 351
100 932 268 1923 597 2895 962 341 128 787 303 798 313 5 4 -19 124 -52 266
-34 143 -63 270 -67 284 -4 17 65 -45 224 -203 l228 -227 39 15 c20 9 41 13
46 8 14 -14 155 -381 213 -555 101 -301 204 -683 251 -928 25 -134 14 -124
162 -143 233 -31 485 -41 663 -28 168 12 297 31 393 58 l57 16 0 121 c0 225
-24 728 -56 1159 -9 120 -14 221 -11 223 3 3 79 -58 169 -136 89 -78 168 -144
174 -146 7 -3 125 29 264 71 138 42 253 75 255 73 2 -1 -57 -77 -131 -168 -73
-91 -133 -169 -133 -175 0 -11 110 -105 429 -366 612 -501 1321 -1035 1984
-1493 296 -206 647 -437 656 -434 5 2 92 83 193 181 l185 177 20 -32 c11 -18
119 -221 242 -450 l222 -417 236 -135 c1078 -613 2025 -1017 2871 -1226 91
-22 166 -39 167 -37 2 2 -42 182 -97 401 -55 219 -98 400 -96 402 2 2 151
-196 332 -440 l327 -444 52 -6 c219 -26 483 -32 681 -16 163 13 205 20 205 34
0 21 -335 689 -465 926 -633 1158 -1365 2200 -2151 3060 -178 194 -610 622
-774 766 -957 841 -1890 1362 -2872 1603 -112 28 -234 55 -273 62 -38 6 -76
14 -83 18 -8 5 30 71 129 216 77 116 144 214 149 218 8 9 240 -313 240 -332 0
-61 505 38 1299 255 668 183 2014 584 2038 607 6 7 71 149 144 317 73 168 133
306 133 307 1 1 328 -12 727 -28 l726 -29 239 80 c480 162 888 288 2129 655
2325 688 3413 1090 4238 1564 155 89 450 282 463 302 3 6 -124 142 -282 302
-274 277 -287 292 -259 295 17 1 288 -15 604 -37 502 -35 577 -38 595 -25 89
62 491 473 658 674 151 180 378 491 378 517 0 6 -114 29 -252 51 -867 142
-1878 234 -2968 272 -254 9 -1451 11 -1685 3z m-18450 -1044 c924 -128 1831
-535 2630 -1179 666 -537 1271 -1239 1733 -2005 90 -151 199 -351 165 -305
-10 13 -76 105 -147 205 -824 1156 -1850 2073 -3013 2694 -465 249 -1014 468
-1446 577 -78 20 -144 38 -147 40 -5 5 1 5 225 -27z m-275 -1279 c918 -45
1829 -314 2743 -809 432 -234 917 -561 1272 -858 162 -135 172 -151 35 -56
-1029 713 -2167 1207 -3320 1442 -770 157 -1563 198 -2225 115 -85 -11 -46 2
116 40 291 67 599 111 888 125 229 12 276 12 491 1z m12182 -70 c217 -15 485
-46 683 -80 192 -32 477 -91 471 -97 -2 -2 -70 3 -152 11 -1012 102 -2302 -29
-3479 -353 -1250 -343 -2484 -921 -3585 -1679 -105 -72 -105 -72 -50 -21 167
155 600 482 919 693 1328 878 2803 1415 4161 1515 80 6 163 13 185 14 102 9
710 6 847 -3z m-1122 -1309 c752 -79 1319 -230 1948 -518 78 -36 141 -67 139
-69 -2 -2 -64 17 -138 42 -396 132 -908 244 -1393 304 -1250 154 -2551 44
-3833 -325 -234 -68 -538 -167 -718 -234 -59 -23 -110 -40 -112 -38 -6 6 286
143 452 212 853 354 1738 569 2620 634 157 12 900 6 1035 -8z m-8080 -1811
c416 -24 804 -91 1200 -205 163 -47 328 -103 308 -105 -4 0 -64 13 -135 29
-552 127 -1088 179 -1655 159 -743 -25 -1499 -205 -2074 -493 -57 -29 -104
-51 -104 -49 0 6 174 120 264 173 621 366 1389 537 2196 491z m4896 -305 c323
-38 623 -124 916 -263 96 -45 199 -104 153 -87 -355 132 -655 202 -1025 239
-639 65 -1332 -14 -1983 -224 -71 -23 -131 -39 -133 -37 -14 14 353 155 576
222 314 93 582 140 965 169 93 7 402 -4 531 -19z m-3986 -101 c-391 -58 -660
-112 -937 -189 -962 -267 -1817 -753 -2436 -1383 -81 -83 -143 -143 -137 -132
5 10 43 63 83 117 348 467 817 848 1372 1114 524 251 1152 418 1760 468 188
16 211 17 305 18 l85 1 -95 -14z m3130 -328 c833 -98 1510 -399 2001 -889 57
-56 124 -127 149 -157 l44 -55 -49 45 c-304 277 -773 555 -1238 734 -490 189
-994 290 -1612 323 -138 7 -144 9 -80 14 126 12 642 2 785 -15z"/>
<path d="M11810 35118 c-47 -32 -88 -63 -93 -67 -4 -4 10 -93 32 -197 22 -104
38 -190 36 -192 -1 -2 -78 44 -169 103 l-167 105 -95 -66 c-52 -36 -94 -67
-92 -69 2 -1 118 -64 258 -140 140 -75 265 -143 277 -151 12 -7 54 -61 93
-119 40 -58 75 -105 78 -105 12 0 162 105 162 113 0 5 -33 57 -74 115 l-73
107 -37 295 c-21 162 -40 302 -44 311 -6 14 -22 6 -92 -43z"/>
<path d="M10945 34501 c-104 -82 -190 -150 -190 -153 0 -6 494 -646 503 -652
6 -3 367 267 400 299 8 8 -92 124 -102 118 -6 -4 -60 -45 -119 -91 -60 -46
-112 -80 -116 -76 -35 40 -101 132 -101 140 1 7 150 128 193 155 8 6 -76 129
-89 129 -2 0 -47 -34 -101 -75 -53 -41 -100 -75 -104 -75 -4 0 -30 28 -57 63
-33 41 -47 66 -41 73 5 6 56 47 114 90 57 44 104 83 105 88 0 15 -82 116 -94
115 -6 0 -96 -67 -201 -148z"/>
<path d="M10555 34192 c-17 -15 -52 -45 -77 -68 l-47 -41 164 -189 c90 -104
161 -190 157 -192 -5 -1 -134 34 -287 79 -239 69 -283 79 -300 68 -30 -19
-135 -112 -135 -121 0 -4 122 -147 271 -318 l271 -311 36 32 c81 70 112 99
112 105 0 3 -72 89 -161 191 -89 101 -159 186 -157 189 3 2 129 -32 280 -76
152 -44 282 -80 290 -80 16 0 153 115 153 129 0 7 -281 336 -516 603 l-24 28
-30 -28z"/>
<path d="M9835 33480 c-69 -16 -117 -50 -254 -186 l-145 -142 51 -58 c29 -33
159 -166 290 -296 l238 -237 74 70 74 70 -111 112 c-62 62 -112 116 -112 120
0 13 21 8 198 -40 l173 -47 79 79 c44 44 80 82 80 86 0 3 -83 27 -185 54 -102
26 -185 49 -185 50 0 1 7 20 16 41 48 114 -15 261 -131 310 -40 16 -112 23
-150 14z m55 -197 c39 -27 49 -45 50 -86 0 -34 -7 -47 -57 -98 l-58 -60 -70
71 -69 70 39 41 c74 77 119 94 165 62z"/>
<path d="M39058 33102 c-245 -297 -316 -376 -332 -374 -12 1 -269 47 -571 102
-303 55 -559 100 -570 100 -13 0 -126 -106 -320 -301 -165 -165 -335 -332
-377 -370 l-77 -70 -482 107 -481 107 -76 -75 c-43 -41 -207 -199 -365 -353
l-288 -278 -532 141 c-293 77 -539 142 -548 144 -10 2 -129 -120 -335 -345
-175 -192 -320 -355 -322 -362 -2 -7 5 -15 14 -19 21 -8 -4 -34 354 359 156
171 288 311 295 313 7 2 250 -60 541 -138 291 -77 535 -140 541 -140 7 0 155
138 330 307 175 168 339 326 364 350 l45 44 482 -107 481 -107 188 181 c103
99 275 268 381 374 l193 194 587 -107 c460 -84 589 -104 597 -95 201 251 613
736 625 736 9 0 227 -49 485 -109 466 -109 484 -111 485 -76 0 6 -199 57 -442
114 -244 56 -469 108 -500 116 l-58 13 -312 -376z"/>
<path d="M9217 32926 l-67 -74 199 -181 c124 -113 205 -194 216 -217 24 -52
13 -95 -39 -149 -37 -39 -48 -45 -85 -45 -23 0 -54 6 -69 14 -15 8 -115 93
-221 189 l-193 175 -57 -60 c-31 -34 -61 -68 -68 -77 -10 -15 17 -43 190 -199
111 -101 216 -191 232 -201 69 -41 143 -54 223 -37 188 39 325 236 288 416
-20 96 -53 138 -267 333 -110 100 -204 183 -208 185 -4 1 -37 -31 -74 -72z"/>
<path d="M14668 32752 c-369 -110 -458 -140 -458 -154 0 -9 4 -19 8 -22 5 -3
204 53 443 124 239 72 439 130 446 130 6 0 186 -180 400 -400 213 -220 393
-400 400 -400 6 0 226 50 488 110 262 61 482 110 488 110 7 0 174 -153 371
-341 197 -187 364 -338 370 -336 6 3 242 60 523 128 282 68 513 129 513 134
-1 37 -18 34 -525 -89 l-509 -124 -280 267 c-154 146 -315 299 -357 339 -42
39 -82 72 -90 72 -8 0 -232 -50 -498 -112 l-483 -111 -251 259 c-138 142 -316
325 -396 406 l-146 146 -457 -136z"/>
<path d="M8635 32182 c-112 -42 -205 -128 -258 -240 -30 -62 -32 -75 -32 -172
0 -98 2 -110 32 -173 81 -170 280 -279 453 -249 98 18 172 57 238 126 65 67
91 112 116 195 56 190 -48 402 -244 495 -56 27 -78 31 -160 34 -73 2 -107 -2
-145 -16z m216 -202 c40 -22 110 -93 131 -134 51 -100 -3 -236 -114 -286 -52
-24 -90 -25 -151 -4 -121 41 -206 176 -178 281 11 42 77 125 115 145 50 27
144 26 197 -2z"/>
<path d="M8008 31463 c-31 -43 -54 -81 -52 -85 3 -4 112 -84 243 -178 131 -94
242 -181 247 -193 29 -68 -32 -115 -107 -83 -12 5 -29 -11 -68 -64 -29 -39
-55 -78 -58 -86 -3 -10 11 -22 48 -39 108 -50 225 -23 307 70 95 108 107 246
29 348 -22 29 -495 378 -522 385 -6 1 -36 -32 -67 -75z"/>
<path d="M7342 30477 c-40 -50 -122 -199 -115 -209 27 -45 546 -668 552 -664
4 3 31 44 60 91 l53 85 -48 55 -47 55 73 121 c40 67 79 123 85 126 7 2 41 -3
75 -12 34 -9 63 -15 65 -13 8 10 114 183 112 184 -1 1 -189 43 -417 94 -228
50 -420 93 -427 95 -6 2 -16 -2 -21 -8z m283 -257 c50 -12 107 -26 127 -31
l38 -10 -42 -67 c-23 -37 -46 -72 -52 -79 -8 -8 -30 12 -86 79 -41 49 -84 101
-94 115 -19 25 -19 25 0 20 10 -3 60 -15 109 -27z"/>
<path d="M6833 29501 c-59 -28 -121 -95 -160 -177 -61 -129 -54 -240 21 -322
73 -80 174 -103 259 -61 23 12 75 56 116 98 89 91 116 111 156 111 64 0 97
-52 71 -114 -20 -48 -56 -69 -103 -61 l-38 6 -48 -96 -47 -96 35 -14 c123 -52
263 23 342 183 79 158 43 317 -86 384 -61 32 -122 36 -178 13 -20 -8 -79 -58
-132 -109 -113 -111 -138 -124 -190 -99 -32 16 -36 23 -39 60 -3 35 2 48 23
69 21 21 33 25 68 22 l42 -3 47 90 c26 50 47 94 48 98 0 15 -69 37 -117 37
-26 0 -67 -9 -90 -19z"/>
<path d="M6425 28809 c-26 -50 -45 -93 -43 -94 9 -9 734 -355 744 -355 5 0 29
40 51 90 l41 90 -71 34 c-123 58 -641 308 -659 317 -15 8 -24 -4 -63 -82z"/>
<path d="M23836 28329 l-377 -372 -467 102 c-257 56 -474 104 -483 107 -11 3
-133 -109 -381 -349 l-364 -354 -546 144 -547 143 -49 -52 c-27 -29 -173 -190
-326 -357 -219 -241 -274 -307 -265 -317 6 -8 17 -14 23 -13 6 0 136 138 289
307 153 169 293 323 312 344 l34 36 528 -139 c290 -77 535 -142 544 -145 12
-3 127 102 383 351 265 257 372 355 384 351 35 -11 928 -206 942 -206 15 0
762 735 768 756 1 6 -4 16 -11 23 -12 9 -82 -55 -391 -360z"/>
<path d="M6141 28192 c-8 -15 -161 -375 -181 -428 -8 -20 13 -31 363 -177 205
-86 378 -157 385 -159 15 -3 203 424 199 450 -1 8 -32 26 -69 42 l-66 29 -57
-139 -57 -139 -47 19 c-25 10 -65 26 -88 37 l-41 18 49 115 c26 63 47 119 46
123 -1 5 -33 21 -70 37 l-68 29 -18 -42 c-9 -23 -30 -73 -46 -112 -16 -38 -32
-74 -36 -79 -8 -9 -146 41 -155 56 -3 4 20 67 50 140 31 72 54 133 53 134 -1
2 -33 16 -70 33 -61 27 -68 29 -76 13z"/>
<path d="M27832 28088 c3 -22 11 -24 203 -44 110 -12 317 -34 461 -49 l261
-28 203 -516 c111 -284 207 -521 214 -527 6 -6 232 -48 501 -94 270 -45 493
-85 497 -89 3 -3 95 -207 203 -453 180 -408 200 -447 224 -452 56 -12 1034
-166 1037 -164 1 2 4 12 6 22 3 19 -30 25 -516 103 -286 46 -520 84 -521 86
-1 1 -91 205 -200 452 -109 248 -198 451 -199 451 0 1 -219 38 -486 83 -267
46 -492 84 -501 87 -10 3 -86 183 -219 522 -111 284 -206 520 -209 524 -5 6
-906 108 -952 108 -6 0 -9 -10 -7 -22z"/>
<path d="M27000 27909 c-222 -47 -382 -63 -620 -63 -128 -1 -257 5 -318 13
-57 7 -104 12 -106 10 -2 -2 5 -58 15 -124 9 -66 25 -199 34 -295 9 -96 18
-189 21 -205 5 -40 102 -212 184 -327 80 -113 263 -305 379 -397 121 -97 255
-182 406 -257 128 -65 130 -65 136 -42 12 39 30 623 36 1186 6 519 6 532 -13
531 -10 -1 -80 -15 -154 -30z"/>
<path d="M5800 27340 c-51 -138 -89 -254 -85 -258 3 -4 178 -71 388 -148 l382
-142 32 87 c18 47 33 91 33 97 0 6 -70 37 -155 69 -85 31 -155 61 -155 65 0 5
18 57 40 117 22 59 36 111 32 114 -8 8 -119 49 -131 49 -5 0 -28 -52 -51 -115
-23 -63 -43 -115 -45 -115 -1 0 -34 11 -71 25 -38 14 -74 28 -81 30 -7 2 9 57
48 161 33 86 58 158 57 160 -3 2 -138 54 -143 54 -1 0 -44 -113 -95 -250z"/>
<path d="M5614 26808 c-15 -46 -29 -88 -31 -94 -3 -8 137 -59 379 -139 211
-71 388 -130 394 -132 11 -4 81 184 73 191 -8 6 -764 256 -776 256 -6 0 -24
-37 -39 -82z"/>
<path d="M26046 26523 c-12 -283 -28 -513 -47 -683 -18 -168 -62 -465 -78
-542 l-9 -36 63 -11 c346 -61 718 -75 997 -40 l97 12 6 51 c8 76 45 640 45
694 l0 47 -178 87 c-315 153 -598 325 -782 472 -47 38 -90 73 -96 78 -9 6 -13
-28 -18 -129z"/>
<path d="M6176 26363 c-38 -132 -59 -199 -66 -206 -5 -6 -513 136 -636 177
-11 4 -69 -182 -60 -192 6 -6 767 -232 782 -232 10 0 142 427 133 433 -9 7
-117 37 -132 37 -8 0 -18 -8 -21 -17z"/>
<path d="M11200 26265 c-492 -69 -995 -247 -1695 -600 -894 -451 -1792 -1037
-2855 -1864 -485 -377 -683 -518 -1805 -1281 -803 -546 -961 -669 -1234 -964
-383 -414 -587 -687 -732 -981 -119 -242 -164 -412 -163 -625 0 -324 115 -491
453 -662 137 -69 475 -201 621 -243 369 -106 668 -139 1390 -154 718 -14 1334
7 2170 74 644 52 997 42 1392 -41 401 -84 815 -208 1303 -389 490 -183 883
-360 1090 -490 206 -129 417 -319 514 -464 211 -312 243 -655 101 -1084 -191
-571 -740 -1337 -1375 -1917 -1036 -946 -2274 -1550 -3997 -1950 -145 -33
-382 -90 -528 -125 -354 -86 -372 -89 -545 -89 -139 1 -158 3 -260 33 -245 72
-518 187 -795 336 -183 98 -244 115 -341 97 -90 -17 -163 -57 -245 -137 -119
-116 -194 -251 -215 -386 -51 -331 210 -666 701 -900 403 -193 1035 -346 1610
-390 203 -15 745 -6 940 15 1174 132 2337 585 3514 1370 532 354 940 685 1851
1500 705 631 996 990 1295 1601 294 598 391 1135 294 1615 -66 323 -275 695
-565 1005 -416 443 -928 780 -1719 1130 -1003 444 -2010 763 -3055 969 -676
133 -1665 265 -2325 311 -270 19 -448 40 -512 61 -27 9 -48 18 -48 20 0 17 62
121 107 182 220 291 525 553 1253 1073 742 530 1669 1117 2800 1771 380 220
733 417 1400 780 96 53 283 155 415 228 287 159 547 292 668 343 155 65 246
144 282 248 31 86 12 318 -37 469 -73 226 -228 385 -448 462 -113 39 -183 49
-375 53 -133 3 -222 0 -295 -10z"/>
<path d="M21335 26024 c-224 -33 -372 -96 -533 -227 -208 -169 -408 -521 -488
-859 -9 -43 -21 -78 -26 -78 -5 0 -25 11 -46 24 -128 81 -335 164 -492 197
-133 28 -356 31 -467 6 -248 -56 -466 -181 -668 -382 -147 -147 -303 -362
-395 -546 -30 -59 -31 -62 -9 -43 619 553 1235 754 1766 578 81 -27 235 -100
288 -137 16 -11 60 -44 97 -74 37 -29 69 -53 71 -53 2 0 7 33 11 73 10 109 52
303 87 403 83 239 187 404 363 579 253 251 508 378 946 472 25 6 25 6 -5 15
-124 38 -402 67 -500 52z"/>
<path d="M32331 25249 c-244 -76 -446 -140 -448 -143 -2 -2 16 -70 41 -152
166 -558 292 -1204 355 -1814 40 -387 46 -516 46 -1025 0 -509 -6 -638 -46
-1025 -67 -657 -193 -1282 -385 -1914 -25 -81 -44 -149 -42 -150 14 -11 905
-291 910 -287 19 17 167 541 241 856 147 620 242 1295 278 1971 15 293 6 1089
-15 1359 -39 476 -101 927 -186 1355 -91 452 -265 1111 -293 1109 -7 0 -212
-63 -456 -140z"/>
<path d="M25866 25023 c-3 -10 -21 -83 -40 -163 -19 -80 -44 -176 -55 -215
l-20 -70 31 -54 c49 -85 167 -238 258 -334 152 -161 383 -330 592 -435 101
-51 270 -123 276 -117 16 15 152 1368 139 1381 -3 4 -55 -1 -114 -10 -332 -50
-635 -48 -913 4 -58 11 -115 23 -127 26 -15 4 -23 1 -27 -13z"/>
<path d="M25621 24158 c-25 -82 -141 -388 -211 -553 -95 -223 -218 -483 -335
-705 -53 -100 -95 -183 -93 -185 2 -2 55 -11 118 -19 571 -77 1094 -87 1547
-29 129 16 132 17 137 42 6 29 69 479 86 611 6 47 12 94 15 106 4 18 -7 26
-73 54 -128 56 -421 204 -562 285 -215 124 -388 244 -530 369 -41 36 -77 66
-81 66 -3 0 -12 -19 -18 -42z"/>
<path d="M14705 23329 c-169 -23 -359 -85 -540 -177 -104 -52 -255 -147 -220
-138 54 14 269 47 373 57 156 15 428 6 553 -20 260 -53 457 -151 623 -310 129
-125 206 -238 266 -392 l27 -69 65 87 c132 176 340 354 516 442 94 47 253 97
370 116 81 14 141 16 275 12 188 -6 308 -26 457 -77 46 -16 86 -28 87 -26 5 5
-127 119 -197 170 -416 305 -944 215 -1402 -241 -54 -53 -98 -92 -98 -86 0 21
-160 250 -219 315 -148 161 -327 270 -526 319 -94 23 -305 33 -410 18z"/>
<path d="M24847 22496 c-3 -8 -49 -85 -101 -170 -53 -85 -96 -159 -96 -165 0
-5 40 -63 89 -128 305 -407 705 -773 1153 -1054 149 -94 523 -287 534 -276 23
22 338 1769 322 1782 -2 1 -75 -9 -163 -21 -596 -87 -1145 -80 -1608 20 -140
31 -124 29 -130 12z"/>
<path d="M24400 21803 c-92 -132 -287 -390 -423 -561 -91 -113 -135 -161 -146
-157 -74 22 -801 146 -1166 199 -967 140 -1788 200 -2710 200 -964 -1 -1729
-66 -2570 -220 -1683 -309 -3182 -972 -4136 -1829 -164 -148 -164 -148 -31
-119 186 40 635 123 969 180 2374 400 4903 507 7533 319 3815 -274 7865 -1180
11740 -2627 903 -337 1923 -762 2600 -1083 124 -58 232 -109 240 -112 25 -9
-317 189 -695 402 -3247 1828 -6391 3215 -9153 4036 -68 20 -73 23 -68 45 6
21 -1 27 -56 55 -111 56 -416 228 -587 331 -325 197 -628 408 -851 592 -102
84 -341 318 -390 380 -19 25 -38 45 -41 46 -3 0 -30 -35 -59 -77z"/>
<path d="M18755 19149 c-62 -45 -110 -120 -150 -234 -93 -269 -304 -727 -487
-1055 -437 -785 -1035 -1617 -1709 -2375 -161 -182 -611 -632 -769 -771 -394
-346 -750 -583 -1005 -670 -104 -35 -227 -44 -290 -20 -388 149 -138 1396 666
3313 133 318 351 806 429 963 63 126 68 142 80 239 14 114 9 198 -15 279 -21
69 -99 152 -167 177 -46 17 -48 17 -92 -5 -32 -15 -60 -41 -94 -88 -246 -334
-750 -1299 -1029 -1967 -421 -1006 -614 -1874 -552 -2476 41 -404 159 -681
384 -905 112 -111 197 -158 317 -174 268 -37 669 136 1203 519 1019 729 2436
2297 3147 3481 254 422 421 810 478 1109 29 150 25 335 -9 422 -34 88 -94 173
-154 218 -46 35 -61 41 -103 41 -34 0 -58 -6 -79 -21z"/>
<path d="M21635 19025 c-93 -21 -226 -72 -343 -133 -224 -116 -259 -132 -322
-148 -91 -23 -145 -14 -257 43 -57 29 -96 43 -102 37 -23 -25 -641 -834 -821
-1074 -384 -514 -888 -1230 -1148 -1632 -650 -1003 -813 -1254 -902 -1398
-123 -197 -233 -417 -285 -572 -34 -99 -39 -125 -39 -208 -1 -83 2 -100 23
-137 29 -51 90 -93 142 -100 88 -12 187 45 299 172 195 221 455 591 1367 1945
546 812 796 1167 1071 1525 478 622 871 994 1134 1076 55 17 128 25 128 14 0
-30 -35 -144 -90 -290 -197 -523 -538 -1417 -675 -1765 l-84 -215 -35 -231
c-39 -261 -38 -281 19 -338 19 -19 64 -49 102 -68 90 -44 199 -51 283 -18 75
29 221 129 360 245 104 87 207 181 784 719 676 629 1025 903 1391 1092 241
125 455 175 587 138 13 -4 15 -11 8 -32 -17 -59 -492 -1174 -678 -1592 -282
-636 -776 -1688 -1058 -2255 -164 -330 -173 -359 -133 -441 53 -110 131 -160
249 -158 84 1 161 37 246 116 110 103 192 240 274 456 24 61 48 112 54 112 7
0 24 39 40 88 29 90 71 183 282 624 69 145 183 387 254 538 153 330 379 805
580 1220 260 536 365 803 436 1105 35 150 44 378 20 488 -101 453 -563 505
-1371 155 -334 -144 -805 -399 -901 -487 -34 -31 -153 -139 -265 -241 -112
-101 -285 -258 -384 -349 -99 -91 -192 -176 -207 -189 -23 -21 -13 10 76 234
244 615 353 969 402 1304 19 131 15 285 -10 365 -66 213 -259 313 -501 260z"/>
<path d="M7438 18389 l-447 -150 63 -182 c428 -1224 1026 -2377 1777 -3423
168 -235 362 -485 373 -482 26 7 746 583 742 594 -2 6 -60 85 -129 175 -673
886 -1224 1856 -1637 2880 -89 220 -188 486 -239 642 -18 53 -38 97 -44 96 -7
0 -213 -68 -459 -150z"/>
<path d="M27820 18278 c-113 -16 -305 -87 -500 -185 -341 -172 -435 -182 -634
-68 -44 25 -83 42 -87 38 -29 -34 -796 -1001 -950 -1198 -1013 -1302 -1863
-2547 -2104 -3082 -96 -213 -118 -291 -119 -413 -1 -97 1 -108 27 -152 38 -66
103 -103 177 -102 86 1 147 38 270 163 203 205 475 566 1070 1421 919 1320
1446 1994 1921 2455 207 201 375 329 544 413 99 50 143 62 223 62 73 0 74 -2
42 -116 -23 -86 -825 -2087 -974 -2433 -31 -70 -43 -125 -81 -353 -51 -305
-51 -310 14 -378 21 -22 71 -55 117 -77 74 -36 85 -38 174 -38 89 0 100 2 173
37 193 92 355 223 1026 827 793 713 1087 958 1441 1203 467 322 890 481 1140
427 43 -9 50 -14 50 -34 0 -39 -606 -1395 -923 -2065 -306 -648 -1112 -2276
-1224 -2474 -25 -44 -65 -120 -89 -169 -37 -77 -44 -100 -44 -152 0 -52 5 -69
38 -124 20 -35 53 -74 72 -87 50 -33 152 -57 209 -49 138 20 294 147 415 338
57 89 218 421 256 527 46 129 108 255 900 1845 379 759 722 1459 763 1555 179
421 257 717 257 980 0 155 -18 241 -70 346 -222 451 -968 347 -2215 -309 -272
-143 -266 -139 -430 -287 -77 -69 -203 -180 -280 -246 -77 -67 -268 -234 -425
-372 -156 -138 -286 -249 -288 -247 -2 2 38 102 89 222 348 825 496 1269 553
1664 57 385 -58 628 -320 684 -77 16 -109 17 -204 3z"/>
<path d="M32499 15829 c-300 -15 -506 -52 -608 -110 -112 -65 -171 -233 -116
-338 22 -44 90 -106 154 -140 l59 -31 -45 -83 c-107 -194 -193 -298 -502 -611
-161 -162 -301 -295 -335 -317 l-59 -39 -129 0 c-87 0 -139 -4 -162 -14 -51
-21 -107 -76 -132 -131 -40 -85 -30 -155 48 -318 l52 -107 -23 -31 c-12 -16
-131 -193 -265 -392 -247 -370 -432 -669 -572 -927 -43 -80 -95 -165 -116
-189 -45 -52 -55 -95 -39 -166 24 -109 119 -205 249 -252 132 -48 391 -49 702
-2 362 54 344 53 775 40 1005 -29 1594 -102 2232 -276 148 -40 132 -46 188 70
43 89 60 191 46 271 -22 118 -71 162 -227 204 -360 98 -718 161 -1186 209
-542 57 -663 63 -1213 68 -291 2 -610 0 -708 -4 -121 -5 -176 -5 -173 2 8 23
205 329 304 474 183 269 422 579 598 777 63 71 64 71 156 97 329 90 675 125
1138 114 289 -7 412 -15 870 -57 179 -16 396 -34 483 -41 l157 -11 36 27 c72
55 85 159 34 262 -67 135 -207 217 -463 272 -286 62 -588 68 -1505 31 -156 -7
-286 -10 -288 -7 -5 5 219 284 390 487 213 253 381 415 548 527 191 127 290
153 590 153 359 0 618 -42 1433 -230 165 -38 398 -86 518 -105 l219 -36 121
-61 c159 -79 215 -98 295 -98 59 0 69 3 107 35 56 45 102 118 115 183 39 177
-140 335 -520 460 -701 231 -2286 408 -3231 361z"/>
<path d="M36885 13724 c-27 -2 -115 -8 -195 -14 -313 -23 -852 -98 -980 -136
-198 -59 -291 -175 -259 -325 24 -111 75 -180 164 -221 46 -21 64 -23 208 -23
l159 0 -55 -51 c-142 -133 -615 -515 -1172 -950 -640 -498 -933 -751 -1256
-1080 -160 -164 -222 -240 -286 -353 -73 -127 -93 -290 -48 -385 42 -89 139
-118 238 -73 142 65 230 141 707 612 385 380 540 520 681 615 94 62 175 99
189 84 5 -5 41 -67 81 -139 125 -226 260 -434 571 -884 197 -284 326 -480 369
-561 36 -69 125 -240 198 -380 231 -442 331 -617 374 -657 38 -34 42 -35 97
-30 108 9 192 63 238 151 24 46 26 61 25 146 -3 262 -133 493 -788 1409 -426
597 -494 700 -599 910 -75 149 -128 303 -108 315 4 2 108 -2 232 -10 552 -33
1101 -42 1525 -24 1096 46 1873 211 2299 488 39 25 110 84 157 131 134 134
189 252 189 405 -1 147 -61 275 -193 407 -313 315 -937 527 -1777 605 -164 15
-856 28 -985 18z m985 -603 c227 -43 497 -123 782 -231 217 -83 461 -191 486
-215 l23 -22 -51 -46 c-282 -254 -1509 -507 -2456 -507 -248 0 -377 9 -544 36
-104 18 -246 59 -255 75 -10 15 383 402 510 503 305 243 572 370 890 422 125
21 469 12 615 -15z"/>
<path d="M11723 12762 c-38 -48 -174 -216 -301 -374 l-232 -287 113 -89 c2150
-1697 4847 -2749 7607 -2967 384 -30 521 -36 965 -42 1689 -22 3271 230 4841
771 471 162 1164 444 1164 473 0 9 7 12 18 9 9 -3 177 -48 372 -100 2888 -771
5902 -1810 8515 -2936 398 -171 1172 -520 1268 -571 9 -6 17 -8 17 -5 0 4
-347 193 -760 414 -975 521 -2199 1136 -3205 1609 -5027 2368 -9592 3720
-13395 3968 -442 28 -742 38 -1225 38 -782 0 -1376 -39 -2040 -133 -695 -99
-1365 -266 -1827 -455 -217 -89 -237 -81 218 -89 2852 -49 5713 -369 8773
-982 566 -113 1616 -342 1664 -362 34 -14 -567 -194 -1024 -307 -2013 -498
-4164 -512 -6197 -40 -1875 436 -3652 1283 -5127 2445 -60 47 -115 89 -121 93
-6 3 -41 -31 -81 -81z"/>
</g>
</svg>
